<svg width="24" height="16" viewBox="0 0 24 16" fill="none" xmlns="http://www.w3.org/2000/svg">
<path d="M1.2 2.66667H22.8C23.1183 2.66667 23.4235 2.52619 23.6485 2.27614C23.8736 2.02609 24 1.68696 24 1.33333C24 0.979711 23.8736 0.640573 23.6485 0.390525C23.4235 0.140476 23.1183 0 22.8 0H1.2C0.88174 0 0.576515 0.140476 0.351472 0.390525C0.126428 0.640573 0 0.979711 0 1.33333C0 1.68696 0.126428 2.02609 0.351472 2.27614C0.576515 2.52619 0.88174 2.66667 1.2 2.66667ZM22.8 13.3333H1.2C0.88174 13.3333 0.576515 13.4738 0.351472 13.7239C0.126428 13.9739 0 14.313 0 14.6667C0 15.0203 0.126428 15.3594 0.351472 15.6095C0.576515 15.8595 0.88174 16 1.2 16H22.8C23.1183 16 23.4235 15.8595 23.6485 15.6095C23.8736 15.3594 24 15.0203 24 14.6667C24 14.313 23.8736 13.9739 23.6485 13.7239C23.4235 13.4738 23.1183 13.3333 22.8 13.3333ZM22.8 6.66667H1.2C0.88174 6.66667 0.576515 6.80714 0.351472 7.05719C0.126428 7.30724 0 7.64638 0 8C0 8.35362 0.126428 8.69276 0.351472 8.94281C0.576515 9.19286 0.88174 9.33333 1.2 9.33333H22.8C23.1183 9.33333 23.4235 9.19286 23.6485 8.94281C23.8736 8.69276 24 8.35362 24 8C24 7.64638 23.8736 7.30724 23.6485 7.05719C23.4235 6.80714 23.1183 6.66667 22.8 6.66667Z" fill="#006838"/>
</svg>
