<svg width="75" height="74" viewBox="0 0 75 74" fill="none" xmlns="http://www.w3.org/2000/svg">
<path d="M70 69L54.3171 53.5584M54.3171 53.5584C56.9997 50.917 59.1277 47.7813 60.5795 44.3302C62.0314 40.8791 62.7786 37.1803 62.7786 33.4449C62.7786 29.7094 62.0314 26.0106 60.5795 22.5595C59.1277 19.1084 56.9997 15.9727 54.3171 13.3313C51.6345 10.69 48.4498 8.59472 44.9448 7.16524C41.4397 5.73575 37.6831 5 33.8893 5C30.0955 5 26.3389 5.73575 22.8338 7.16524C19.3288 8.59472 16.1441 10.69 13.4615 13.3313C8.04369 18.6657 5 25.9008 5 33.4449C5 40.9889 8.04369 48.224 13.4615 53.5584C18.8793 58.8928 26.2274 61.8897 33.8893 61.8897C41.5512 61.8897 48.8993 58.8928 54.3171 53.5584Z" stroke="#006838" stroke-width="10" stroke-linecap="round" stroke-linejoin="round"/>
</svg>
