<svg width="88" height="88" viewBox="0 0 88 88" fill="none" xmlns="http://www.w3.org/2000/svg">
<path d="M63.2494 3.66656H68.7495V14.6666H78.8329V20.1666H68.7495V40.3333H63.2494V20.1666H53.166V14.6666H63.2494V3.66656Z" fill="black"/>
<path d="M21.9999 3.66669L16.6832 12.8334H6.0498L11.5498 22L6.0498 31.1667H16.6832L21.9999 40.3334L27.3166 31.1667H37.95L32.45 22L37.95 12.8334H27.3166L21.9999 3.66669ZM21.9999 9.16669L24.1999 12.8334H19.7999L21.9999 9.16669ZM15.0332 15.5834L13.0165 19.25L10.8165 15.5834H15.0332ZM18.3332 15.5834H25.6666L29.3333 22L25.6666 28.4167H18.3332L14.6665 22L18.3332 15.5834ZM33 15.5834L30.8 19.25L28.7833 15.5834H33ZM13.0165 24.75L15.0332 28.4167H10.9998L13.0165 24.75ZM30.9833 24.75L33.1833 28.4167H28.9666L30.9833 24.75ZM24.3833 31.1667L21.9999 34.8334L19.7999 31.1667H24.3833Z" fill="black"/>
<path d="M22.55 47.6666H22C19.5924 47.6666 17.2084 48.1408 14.9841 49.0622C12.7597 49.9835 10.7387 51.3339 9.03625 53.0363C5.59806 56.4745 3.6665 61.1377 3.6665 66C3.6665 70.8623 5.59806 75.5255 9.03625 78.9636C10.7387 80.666 12.7597 82.0165 14.9841 82.9378C17.2084 83.8591 19.5924 84.3334 22 84.3334C27.5 84.3334 30.6167 82.5 33.9167 79.75C23.8333 82.5 14.6666 75.1667 14.6666 66C14.6666 56.8333 23.8333 49.5 33.9167 52.25C32.4264 50.7625 30.6521 49.5902 28.6993 48.8028C26.7465 48.0154 24.6552 47.629 22.55 47.6666ZM30.8 55.3666L28.05 61.7833L21.2666 62.3333L26.5833 66.9167L24.9333 73.3333L30.8 69.6667L36.6667 73.3333L34.8334 66.9167L40.3334 62.3333L33.55 61.7833L30.8 55.3666Z" fill="black"/>
<path d="M71.4999 47.6666L68.7499 50.4166L71.4999 53.1666L74.2499 50.4166L71.4999 47.6666ZM64.1665 49.5C62.3331 60.5 75.1666 62.3333 80.6666 55L76.9999 52.25C75.1666 55 67.8332 58.6666 64.1665 49.5ZM60.4998 56.8333C56.8331 56.8333 52.2497 59.5833 52.2497 59.5833L54.9998 64.1666C56.8331 62.3333 60.4998 61.4166 62.3331 62.3333C65.9998 64.1666 60.4998 67.8333 56.8331 66V72.4167C62.3331 69.6667 65.9998 73.3333 64.1665 76.0833C58.6665 84.3333 49.4997 73.3333 49.4997 67.8333C45.833 78.8333 54.9998 84.3333 60.4998 84.3333C65.9998 84.3333 69.6665 80.6667 66.9165 71.5H69.6665C66.9165 79.75 76.9999 88 82.5 77C84.3333 73.3333 84.3333 61.4166 75.1666 61.4166C67.8332 61.4166 69.6665 71.5 63.2498 68.75C69.6665 62.3333 65.9998 56.8333 60.4998 56.8333ZM78.8333 66C84.3333 71.5 71.4999 82.5 71.4999 71.5C71.4999 67.8333 75.1666 63.25 78.8333 66Z" fill="black"/>
</svg>
