<svg width="11" height="14" viewBox="0 0 11 14" fill="none" xmlns="http://www.w3.org/2000/svg">
<path d="M7.41674 3.5C8.33732 3.5 9.08342 2.7166 9.08342 1.75C9.08342 0.783399 8.33732 0 7.41674 0C6.49615 0 5.75005 0.783399 5.75005 1.75C5.75005 2.7166 6.49615 3.5 7.41674 3.5ZM6.61907 8.1416C6.98522 8.59879 7.63471 8.66359 8.07664 8.28434L10.3683 6.31504C10.8134 5.93277 10.8785 5.24344 10.5147 4.77613C10.1509 4.30828 9.4941 4.24047 9.04826 4.62246L7.55241 5.90762L6.53912 4.64133C6.13704 4.13848 5.51776 3.87789 4.87244 3.94871C4.24248 4.01652 3.69404 4.39359 3.40445 4.95824L2.11876 7.47469C1.50938 8.66797 1.89246 10.1098 3.00914 10.8585L4.17608 11.8125H1.79168C1.21641 11.8125 0.75 12.3022 0.75 12.9062C0.75 13.5103 1.21641 14 1.79168 14H7.2084C8.09591 14 8.60868 12.83 7.94487 12.133L5.0839 9.12898L5.99016 7.3552L6.61907 8.1416Z" fill="white"/>
</svg>
