<svg width="30" height="30" viewBox="0 0 30 30" fill="none" xmlns="http://www.w3.org/2000/svg">
<path d="M26.4283 0H3.57167C2.62467 0.000882567 1.71672 0.377466 1.04709 1.04709C0.377466 1.71672 0.000882567 2.62467 0 3.57167V26.4283C0 28.4 1.60167 30 3.57167 30H26.4283C27.3753 29.9991 28.2833 29.6225 28.9529 28.9529C29.6225 28.2833 29.9991 27.3753 30 26.4283V3.57167C29.9991 2.62467 29.6225 1.71672 28.9529 1.04709C28.2833 0.377466 27.3753 0.000882567 26.4283 0ZM23.575 13.0883C22.5237 13.1904 21.466 12.975 20.5383 12.47C19.7559 12.0481 19.0913 11.4374 18.605 10.6933V18.9333C18.605 20.1378 18.2478 21.3153 17.5786 22.3168C16.9095 23.3182 15.9583 24.0988 14.8455 24.5598C13.7327 25.0207 12.5082 25.1413 11.3269 24.9063C10.1456 24.6713 9.06042 24.0913 8.20872 23.2396C7.35702 22.3879 6.777 21.3028 6.54202 20.1214C6.30703 18.9401 6.42764 17.7156 6.88857 16.6028C7.34951 15.49 8.13008 14.5389 9.13158 13.8697C10.1331 13.2005 11.3105 12.8433 12.515 12.8433C12.6417 12.8433 12.765 12.855 12.89 12.8617V15.8633C12.765 15.8483 12.6433 15.825 12.515 15.825C11.6906 15.825 10.9 16.1525 10.3171 16.7354C9.73415 17.3183 9.40667 18.109 9.40667 18.9333C9.40667 19.7577 9.73415 20.5483 10.3171 21.1313C10.9 21.7142 11.6906 22.0417 12.515 22.0417C14.2317 22.0417 15.7483 20.69 15.7483 18.9733L15.7783 4.97667H18.65C18.7814 6.22405 19.347 7.38559 20.2478 8.25838C21.1486 9.13117 22.3274 9.65971 23.5783 9.75167V13.0883" fill="black"/>
</svg>
