<svg width="81" height="73" viewBox="0 0 81 73" fill="none" xmlns="http://www.w3.org/2000/svg">
<path d="M40.4931 0C36.9133 0 33.4801 1.44202 30.9488 4.00883C28.4176 6.57564 26.9955 10.057 26.9955 13.687C26.9955 17.317 28.4176 20.7984 30.9488 23.3652C33.4801 25.932 36.9133 27.374 40.4931 27.374C44.0729 27.374 47.5061 25.932 50.0373 23.3652C52.5686 20.7984 53.9907 17.317 53.9907 13.687C53.9907 10.057 52.5686 6.57564 50.0373 4.00883C47.5061 1.44202 44.0729 0 40.4931 0ZM18.2355 36.4804C18.0826 37.2226 18.0061 37.989 18.0061 38.7798V54.748C18.0031 58.0603 18.713 61.3333 20.0861 64.3386C21.4592 67.344 23.4625 70.0094 25.9562 72.1488L25.1868 72.3769C22.9038 72.9979 20.5225 73.1567 18.1789 72.8444C15.8353 72.532 13.5754 71.7546 11.5281 70.5565C9.4809 69.3583 7.68648 67.763 6.24735 65.8615C4.80822 63.9601 3.75257 61.7898 3.14071 59.4746L0.229726 48.4566C0.000448868 47.5884 -0.057948 46.683 0.0578697 45.7919C0.173687 44.9009 0.461451 44.0417 0.90473 43.2635C1.34801 42.4852 1.93812 41.8031 2.64137 41.2561C3.34462 40.7091 4.14723 40.308 5.00338 40.0755L18.2355 36.4804ZM55.048 72.1488C57.5417 70.0094 59.545 67.344 60.9181 64.3386C62.2912 61.3333 63.001 58.0603 62.9981 54.748V38.7798C62.9951 37.989 62.9201 37.2226 62.7731 36.4804L76.0008 40.0755C77.729 40.546 79.2023 41.6931 80.0966 43.2648C80.991 44.8364 81.2332 46.7039 80.77 48.4566L77.859 59.4746C77.2296 61.8553 76.1311 64.0821 74.6298 66.0206C73.1285 67.9591 71.2555 69.5692 69.1238 70.7536C66.9921 71.938 64.6459 72.6722 62.2267 72.912C59.8076 73.1518 57.3655 72.8922 55.048 72.1488ZM69.7379 9.12467C66.7548 9.12467 63.8938 10.3264 61.7844 12.4654C59.675 14.6044 58.4899 17.5055 58.4899 20.5305C58.4899 23.5555 59.675 26.4566 61.7844 28.5956C63.8938 30.7347 66.7548 31.9363 69.7379 31.9363C72.7211 31.9363 75.5821 30.7347 77.6915 28.5956C79.8009 26.4566 80.9859 23.5555 80.9859 20.5305C80.9859 17.5055 79.8009 14.6044 77.6915 12.4654C75.5821 10.3264 72.7211 9.12467 69.7379 9.12467ZM11.2483 9.12467C8.26512 9.12467 5.40414 10.3264 3.29473 12.4654C1.18532 14.6044 0.000266562 17.5055 0.000266562 20.5305C0.000266562 23.5555 1.18532 26.4566 3.29473 28.5956C5.40414 30.7347 8.26512 31.9363 11.2483 31.9363C14.2314 31.9363 17.0924 30.7347 19.2018 28.5956C21.3112 26.4566 22.4963 23.5555 22.4963 20.5305C22.4963 17.5055 21.3112 14.6044 19.2018 12.4654C17.0924 10.3264 14.2314 9.12467 11.2483 9.12467ZM29.2451 31.9363C27.4552 31.9363 25.7386 32.6573 24.473 33.9408C23.2073 35.2242 22.4963 36.9648 22.4963 38.7798V54.748C22.4963 59.588 24.3924 64.2298 27.7674 67.6522C31.1425 71.0747 35.72 72.9973 40.4931 72.9973C45.2661 72.9973 49.8437 71.0747 53.2188 67.6522C56.5938 64.2298 58.4899 59.588 58.4899 54.748V38.7798C58.4899 36.9648 57.7789 35.2242 56.5132 33.9408C55.2476 32.6573 53.531 31.9363 51.7411 31.9363H29.2451Z" fill="black"/>
</svg>
