<svg width="59" height="77" viewBox="0 0 59 77" fill="none" xmlns="http://www.w3.org/2000/svg">
<path d="M39.3337 19.25C44.7652 19.25 49.1672 14.9413 49.1672 9.625C49.1672 4.30869 44.7652 0 39.3337 0C33.9023 0 29.5003 4.30869 29.5003 9.625C29.5003 14.9413 33.9023 19.25 39.3337 19.25ZM34.6275 44.7788C36.7878 47.2933 40.6198 47.6498 43.2272 45.5638L56.7481 34.7327C59.374 32.6303 59.7581 28.8389 57.6116 26.2687C55.4652 23.6955 51.5902 23.3226 48.9598 25.4235L40.1343 32.4919L34.1558 25.5273C31.7835 22.7616 28.1298 21.3284 24.3224 21.7179C20.6057 22.0909 17.3698 24.1648 15.6613 27.2703L8.07571 41.1108C4.48036 47.6738 6.74051 55.6039 13.3289 59.7216L20.2139 64.9688H6.1459C2.75183 64.9688 0 67.6622 0 70.9844C0 74.3065 2.75183 77 6.1459 77H38.1046C43.3409 77 46.3662 70.5648 42.4497 66.7313L25.57 50.2094L30.9169 40.4536L34.6275 44.7788Z" fill="black"/>
</svg>
